<svg
  style="display: none"
  version="1.1"
  xmlns="http://www.w3.org/2000/svg"
  xmlns:xlink="http://www.w3.org/1999/xlink"
>
  <defs>
    <symbol id="icon-power-button" viewBox="-4.5 1 30 30">
     <path d="M14.344 7.375c3.688 1.563 6.281 5.219 6.281 9.5 0 5.656-4.625 10.313-10.313 10.313-5.656 0-10.313-4.656-10.313-10.313 0-4.281 2.594-7.938 6.313-9.5v3.469c-1.938 1.313-3.25 3.5-3.25 6.031 0 4 3.25 7.25 7.25 7.25s7.25-3.25 7.25-7.25c0-2.531-1.281-4.719-3.219-6.031v-3.469zM12.031 16.813v-12.031h-3.438v12.031h3.438z"></path>
    </symbol>

    <symbol id="icon-flow" viewBox="0 0 56 56">
      <path d="M 6.1563 21.2852 C 9.5313 20.2071 13.0235 19.6680 16.3516 19.6680 C 20.6641 19.6680 23.8282 20.3476 27.9063 20.3476 C 32.1250 20.3476 34.7500 17.4883 34.7500 13.7617 C 34.7500 9.9414 31.8204 7.2227 28.2110 7.2227 C 25.5391 7.2227 23.1953 8.8867 22.2110 11.1133 C 21.8360 11.8867 21.9766 12.8008 22.7969 13.2227 C 23.5469 13.5976 24.4610 13.3633 24.9532 12.4024 C 25.4688 11.2071 26.7344 10.2695 28.2110 10.2695 C 30.1563 10.2695 31.6797 11.6289 31.6797 13.7617 C 31.6797 15.8945 30.2032 17.3008 27.9063 17.3008 C 24.0157 17.3008 20.8047 16.5976 16.3516 16.5976 C 12.5313 16.5976 8.6641 17.2773 5.2188 18.3789 C 4.2344 18.6602 3.8594 19.5039 4.0938 20.3242 C 4.3282 21.1211 5.1016 21.5898 6.1563 21.2852 Z M 42.8125 32.2539 C 48.2737 32.2539 52.1406 28.7852 52.1406 23.9336 C 52.1406 19.1524 48.4609 15.6836 43.8906 15.6836 C 39.6485 15.6836 36.5079 18.6367 35.9453 22.5273 C 35.8047 23.4883 36.3438 24.2617 37.1875 24.3789 C 38.0547 24.4961 38.8047 23.9571 38.9922 22.8555 C 39.3906 20.4180 41.4297 18.7305 43.8906 18.7305 C 46.7502 18.7305 49.0705 20.8633 49.0705 23.9336 C 49.0705 27.0508 46.6096 29.2071 42.8125 29.2071 C 35.6641 29.2071 27.9532 25.1289 18.5782 25.1289 C 13.7500 25.1289 9.3438 25.9024 5.2188 27.3789 C 4.2579 27.7071 3.8594 28.5273 4.0938 29.3476 C 4.3282 30.1445 5.1250 30.6367 6.1563 30.2852 C 9.9766 28.8320 13.9610 28.1992 18.5782 28.1992 C 27.9297 28.1992 34.9141 32.2539 42.8125 32.2539 Z M 27.9297 48.7773 C 31.5391 48.7773 34.3282 46.1055 34.3282 42.2852 C 34.3282 36.7539 28.6797 33.6602 18.2735 33.6602 C 13.9141 33.6602 9.2032 34.5039 5.2188 35.8867 C 4.2579 36.2149 3.8594 37.0352 4.0938 37.8555 C 4.3282 38.6524 5.1250 39.1445 6.1563 38.7930 C 9.8828 37.4571 14.0547 36.7305 18.2735 36.7305 C 26.7813 36.7305 31.2813 38.8633 31.2813 42.2852 C 31.2813 44.4414 29.7813 45.7305 27.9297 45.7305 C 26.0782 45.7305 24.9532 44.4883 24.6250 42.5195 C 24.4844 41.6524 23.8516 40.9492 22.8438 41.0195 C 21.7891 41.0898 21.3672 41.9805 21.5079 42.9180 C 21.9297 46.1758 24.3438 48.7773 27.9297 48.7773 Z"/>
    </symbol>

    <symbol id="icon-flow-arrows" viewBox="0 0 32 32">
      <path d="M25,2,23.5859,3.4141,26.1719,6h-5.09a16.93,16.93,0,0,0-6.3139,1.2158L10.4893,8.9272A14.93,14.93,0,0,1,4.9185,10H2v2H4.9185a16.93,16.93,0,0,0,6.3139-1.2158l4.2783-1.7114A14.93,14.93,0,0,1,21.0815,8h5.09l-2.586,2.5859L25,12l5-5Z" transform="translate(0 0)"/>
      <path d="M21,11l-1.4141,1.4141L22.1719,15H18.9014a16.9422,16.9422,0,0,0-5.9693,1.0825l-2.5664.9624A14.9456,14.9456,0,0,1,5.0986,18H2v2H5.0986a16.9422,16.9422,0,0,0,5.9693-1.0825l2.5664-.9624A14.9456,14.9456,0,0,1,18.9014,17h3.2705l-2.586,2.5859L21,21l5-5Z" transform="translate(0 0)"/>
      <path d="M17,20l-1.4141,1.4141L18.1719,24H16.5967a16.9879,16.9879,0,0,0-5.3765.8721l-1.0727.3584A14.9852,14.9852,0,0,1,5.4033,26H2v2H5.4033a16.9879,16.9879,0,0,0,5.3765-.8721l1.0727-.3584A14.9852,14.9852,0,0,1,16.5967,26h1.5752l-2.586,2.5859L17,30l5-5Z" transform="translate(0 0)"/>
    </symbol>

    <symbol id="icon-quit" viewBox="0 0 20 20" fill="none">
      <g clip-path="url(#clip0)">
        <path
          d="M14.1406 15.3125V16.875C14.1406 18.5982 12.7388 20 11.0156 20H3.16406C1.44089 20 0.0390625 18.5982 0.0390625 16.875V3.125C0.0390625 1.40182 1.44089 0 3.16406 0H11.0156C12.7388 0 14.1406 1.40182 14.1406 3.125V4.6875C14.1406 5.11902 13.7909 5.46875 13.3594 5.46875C12.9279 5.46875 12.5781 5.11902 12.5781 4.6875V3.125C12.5781 2.26349 11.8771 1.5625 11.0156 1.5625H3.16406C2.30255 1.5625 1.60156 2.26349 1.60156 3.125V16.875C1.60156 17.7365 2.30255 18.4375 3.16406 18.4375H11.0156C11.8771 18.4375 12.5781 17.7365 12.5781 16.875V15.3125C12.5781 14.881 12.9279 14.5312 13.3594 14.5312C13.7909 14.5312 14.1406 14.881 14.1406 15.3125ZM19.467 8.65799L17.7176 6.90857C17.4124 6.60339 16.9177 6.60339 16.6127 6.90857C16.3075 7.21359 16.3075 7.70828 16.6127 8.01331L17.8571 9.25781H8.47656C8.04504 9.25781 7.69531 9.60754 7.69531 10.0391C7.69531 10.4706 8.04504 10.8203 8.47656 10.8203H17.8571L16.6127 12.0648C16.3075 12.3698 16.3075 12.8645 16.6127 13.1696C16.7653 13.3221 16.9652 13.3984 17.1651 13.3984C17.3651 13.3984 17.565 13.3221 17.7176 13.1696L19.467 11.4201C20.2286 10.6586 20.2286 9.41956 19.467 8.65799Z"
          fill="#455AF7"
        />
      </g>
      <defs>
        <clipPath id="clip0">
          <rect width="20" height="20" fill="white" />
        </clipPath>
      </defs>
    </symbol>
    
    <symbol id="icon-user" viewBox="0 0 25 25" fill="white">
      <path d="M18.14 21.62C17.26 21.88 16.22 22 15 22H8.99998C7.77998 22 6.73999 21.88 5.85999 21.62C6.07999 19.02 8.74998 16.97 12 16.97C15.25 16.97 17.92 19.02 18.14 21.62Z" stroke="#455AF7" stroke-width="1.5" stroke-linecap="round" stroke-linejoin="round"/>
      <path d="M15 2H9C4 2 2 4 2 9V15C2 18.78 3.14 20.85 5.86 21.62C6.08 19.02 8.75 16.97 12 16.97C15.25 16.97 17.92 19.02 18.14 21.62C20.86 20.85 22 18.78 22 15V9C22 4 20 2 15 2ZM12 14.17C10.02 14.17 8.42 12.56 8.42 10.58C8.42 8.60002 10.02 7 12 7C13.98 7 15.58 8.60002 15.58 10.58C15.58 12.56 13.98 14.17 12 14.17Z" stroke="#455AF7" stroke-width="1.5" stroke-linecap="round" stroke-linejoin="round"/>
      <path d="M15.58 10.58C15.58 12.56 13.98 14.17 12 14.17C10.02 14.17 8.42004 12.56 8.42004 10.58C8.42004 8.60002 10.02 7 12 7C13.98 7 15.58 8.60002 15.58 10.58Z" stroke="#455AF7" stroke-width="1.5" stroke-linecap="round" stroke-linejoin="round"/>
    </symbol>

    <symbol id="icon-settings" viewBox="0 0 25 25" fill="white">
      <path d="M11 3H13C13.5523 3 14 3.44772 14 4V4.56879C14 4.99659 14.2871 5.36825 14.6822 5.53228C15.0775 5.69638 15.5377 5.63384 15.8403 5.33123L16.2426 4.92891C16.6331 4.53838 17.2663 4.53838 17.6568 4.92891L19.071 6.34312C19.4616 6.73365 19.4615 7.36681 19.071 7.75734L18.6688 8.1596C18.3661 8.46223 18.3036 8.92247 18.4677 9.31774C18.6317 9.71287 19.0034 10 19.4313 10L20 10C20.5523 10 21 10.4477 21 11V13C21 13.5523 20.5523 14 20 14H19.4312C19.0034 14 18.6318 14.2871 18.4677 14.6822C18.3036 15.0775 18.3661 15.5377 18.6688 15.8403L19.071 16.2426C19.4616 16.6331 19.4616 17.2663 19.071 17.6568L17.6568 19.071C17.2663 19.4616 16.6331 19.4616 16.2426 19.071L15.8403 18.6688C15.5377 18.3661 15.0775 18.3036 14.6822 18.4677C14.2871 18.6318 14 19.0034 14 19.4312V20C14 20.5523 13.5523 21 13 21H11C10.4477 21 10 20.5523 10 20V19.4313C10 19.0034 9.71287 18.6317 9.31774 18.4677C8.92247 18.3036 8.46223 18.3661 8.1596 18.6688L7.75732 19.071C7.36679 19.4616 6.73363 19.4616 6.34311 19.071L4.92889 17.6568C4.53837 17.2663 4.53837 16.6331 4.92889 16.2426L5.33123 15.8403C5.63384 15.5377 5.69638 15.0775 5.53228 14.6822C5.36825 14.2871 4.99659 14 4.56879 14H4C3.44772 14 3 13.5523 3 13V11C3 10.4477 3.44772 10 4 10L4.56877 10C4.99658 10 5.36825 9.71288 5.53229 9.31776C5.6964 8.9225 5.63386 8.46229 5.33123 8.15966L4.92891 7.75734C4.53838 7.36681 4.53838 6.73365 4.92891 6.34313L6.34312 4.92891C6.73365 4.53839 7.36681 4.53839 7.75734 4.92891L8.15966 5.33123C8.46228 5.63386 8.9225 5.6964 9.31776 5.53229C9.71288 5.36825 10 4.99658 10 4.56876V4C10 3.44772 10.4477 3 11 3Z" stroke="#455AF7" stroke-width="1.5"/>
      <path d="M14 12C14 13.1046 13.1046 14 12 14C10.8954 14 10 13.1046 10 12C10 10.8954 10.8954 10 12 10C13.1046 10 14 10.8954 14 12Z" stroke="#455AF7" stroke-width="1.5"/>
    </symbol>

    <symbol id="icon-home" viewBox="0 0 30 30">
      <path
        d="M24.9609 29.0614H5.03906C3.55289 29.0614 2.34375 27.8524 2.34375 26.3661V12.1853C2.34375 11.6676 2.76346 11.2478 3.28125 11.2478C3.79904 11.2478 4.21875 11.6676 4.21875 12.1853V26.3661C4.21875 26.8185 4.58672 27.1865 5.03906 27.1865H24.9609C25.4133 27.1865 25.7812 26.8185 25.7812 26.3661V12.1853C25.7812 11.6676 26.201 11.2478 26.7188 11.2478C27.2365 11.2478 27.6562 11.6676 27.6562 12.1853V26.3661C27.6562 27.8523 26.4472 29.0614 24.9609 29.0614Z"
      />
      <path
        d="M29.0625 15.4663C28.8226 15.4663 28.5827 15.3748 28.3996 15.1917L16.7401 3.53225C15.7806 2.57272 14.2194 2.57272 13.2599 3.53225L1.60043 15.1917C1.23434 15.5579 0.640723 15.5579 0.27463 15.1917C-0.0915229 14.8256 -0.0915229 14.232 0.27463 13.8659L11.9341 2.20639C13.6246 0.515839 16.3754 0.515839 18.0659 2.20639L29.7254 13.8659C30.0915 14.232 30.0915 14.8256 29.7254 15.1917C29.5424 15.3748 29.3024 15.4663 29.0625 15.4663Z"
      />
      <path
        d="M18.75 29.0615H11.25C10.7322 29.0615 10.3125 28.6418 10.3125 28.124V19.8037C10.3125 18.1883 11.6268 16.874 13.2422 16.874H16.7578C18.3732 16.874 19.6875 18.1883 19.6875 19.8037V28.124C19.6875 28.6418 19.2678 29.0615 18.75 29.0615ZM12.1875 27.1865H17.8125V19.8037C17.8125 19.2222 17.3394 18.749 16.7578 18.749H13.2422C12.6606 18.749 12.1875 19.2222 12.1875 19.8037V27.1865Z"
      />
    </symbol>

    <symbol id="icon-thunder" viewBox="0 0 30 30">
      <path
        d="M7.55335 29.8955C7.94153 30.1038 8.42282 29.9921 8.68034 29.6369L22.7428 10.2424C22.9367 9.97502 22.9643 9.62141 22.8141 9.32709C22.664 9.03284 22.3616 8.84756 22.0313 8.84756H18.3048L22.7862 1.32884C22.9481 1.05726 22.9516 0.719646 22.7954 0.444725C22.6393 0.169804 22.3474 0 22.0313 0H11.4844C11.0808 0 10.7291 0.274921 10.6316 0.66656L7.11595 14.7876C7.05061 15.0501 7.10979 15.3281 7.27632 15.5412C7.4429 15.7543 7.69831 15.8788 7.96878 15.8788H11.9758L7.14548 28.8135C6.99161 29.2254 7.16587 29.6876 7.55335 29.8955ZM14.0656 15.3074C14.1664 15.0376 14.1285 14.7355 13.9643 14.4988C13.8001 14.2622 13.5303 14.121 13.2422 14.121H9.09336L12.1713 1.75781H20.4843L16.0029 9.27653C15.841 9.54811 15.8375 9.88572 15.9937 10.1606C16.1499 10.4356 16.4417 10.6054 16.7579 10.6054H20.3085L11.0564 23.3655L14.0656 15.3074Z"
      />
    </symbol>

    <symbol id="icon-temperature" viewBox="0 0 30 30">
      <g clip-path="url(#clip0)">
        <path
          d="M15.877 24.0121C15.877 25.2461 14.873 26.25 13.6391 26.25C12.4051 26.25 11.4012 25.2461 11.4012 24.0121C11.4012 23.1245 11.9205 22.356 12.6713 21.9945V9.85887C12.6713 9.32438 13.1046 8.89113 13.6391 8.89113C14.1736 8.89113 14.6068 9.32438 14.6068 9.85887V21.9945C15.3576 22.356 15.877 23.1245 15.877 24.0121ZM20.2344 4.35484C20.2344 4.88934 19.8012 5.32258 19.2667 5.32258H17.6915V9.43548H18.9616C19.4961 9.43548 19.9294 9.86873 19.9294 10.4032C19.9294 10.9377 19.4961 11.371 18.9616 11.371H17.6915V15.4839H18.9616C19.4961 15.4839 19.9294 15.9171 19.9294 16.4516C19.9294 16.9861 19.4961 17.4194 18.9616 17.4194H17.6915V19.6034C18.9273 20.7358 19.627 22.3169 19.627 24.0121C19.627 27.3139 16.9408 30 13.6391 30C10.3373 30 7.65115 27.3139 7.65115 24.0121C7.65115 22.317 8.35083 20.7358 9.58664 19.6034V4.05242C9.58664 1.8179 11.4045 0 13.6391 0C15.6469 0 17.3175 1.46812 17.636 3.3871H19.2667C19.8012 3.3871 20.2344 3.82034 20.2344 4.35484ZM17.6915 24.0121C17.6915 22.7541 17.122 21.5888 16.1289 20.8149C15.8935 20.6316 15.756 20.3499 15.756 20.0516V4.05242C15.756 2.88514 14.8063 1.93548 13.6391 1.93548C12.4718 1.93548 11.5221 2.88514 11.5221 4.05242V20.0516C11.5221 20.35 11.3846 20.6316 11.1492 20.8149C10.1562 21.5888 9.58664 22.7541 9.58664 24.0121C9.58664 26.2466 11.4045 28.0645 13.6391 28.0645C15.8736 28.0645 17.6915 26.2466 17.6915 24.0121Z"
        />
      </g>
      <defs>
        <clipPath id="clip0">
          <rect width="30" height="30" />
        </clipPath>
      </defs>
    </symbol>

    <symbol id="icon-fan" viewBox="0 0 30 28">
      <path
        d="M29.653 18.1185L29.5031 17.6552L26.6426 16.9388C26.6602 16.6793 26.6682 16.4188 26.6682 16.1558C26.6682 12.8206 25.2356 9.63842 22.7381 7.42513L21.5726 8.74005C23.6946 10.6201 24.9111 13.3232 24.9111 16.1558C24.9111 16.2723 24.9095 16.3884 24.9047 16.5037L23.0473 16.0386C23.021 14.2154 22.3721 12.4447 21.2119 11.0389L19.8564 12.1577C20.6623 13.1334 21.1526 14.3364 21.2664 15.5928L19.3733 15.119C19.1689 14.2557 18.7136 13.4878 18.0892 12.8968L20.9674 2.85596L20.642 2.49455C19.2467 0.944107 17.192 0.0544434 15.0055 0.0544434C12.819 0.0544434 10.765 0.944107 9.36976 2.49455L9.04406 2.85596L9.85544 5.68723C9.21869 6.00171 8.60712 6.37662 8.02736 6.81058C6.06813 8.27542 4.59093 10.3631 3.86766 12.6878L5.5456 13.2097C6.34394 10.6418 8.09694 8.59357 10.3469 7.40155L10.8774 9.25367C10.1862 9.66725 9.55378 10.1854 9.00675 10.7977L10.3169 11.9684C10.6378 11.6093 10.9964 11.2914 11.3835 11.0195L11.9218 12.8975C11.3008 13.4855 10.847 14.2486 10.6414 15.1066L8.74651 15.5758C8.81151 14.8503 9.0008 14.1508 9.31185 13.4889L7.72089 12.7423C7.23726 13.7729 6.98252 14.8741 6.96375 16.0169L0.504471 17.6159L0.35318 18.0787C-0.2957 20.0612 -0.0425566 22.2853 1.04738 24.1811C2.13731 26.0765 3.93198 27.4143 5.97155 27.8512L6.44762 27.9531L8.50069 25.8359C10.413 27.122 12.6744 27.8178 15.0055 27.8178C15.8103 27.8178 16.6139 27.7359 17.3946 27.5731L17.0362 25.8529C16.3731 25.9911 15.6903 26.0607 15.0055 26.0607C13.0902 26.0607 11.2832 25.5079 9.75107 24.5455L11.0806 23.1743C12.2422 23.8268 13.5812 24.1987 15.0055 24.1987V22.4416C14.0602 22.4416 13.1635 22.232 12.3587 21.8559L13.7165 20.4549C14.1245 20.5778 14.5574 20.644 15.0055 20.644C15.4495 20.644 15.8782 20.5797 16.2836 20.4583L23.5318 27.976L24.0079 27.8753C26.0486 27.4443 27.8474 26.111 28.9421 24.2187C30.0373 22.3263 30.2962 20.1029 29.653 18.1185V18.1185ZM17.8897 19.592C18.6786 18.9292 19.2373 18.0002 19.4252 16.9434L28.1074 19.1171C28.4242 20.5087 28.1829 22.0223 27.4214 23.3388C26.6595 24.6551 25.4682 25.6185 24.1033 26.0373L17.8897 19.592ZM11.0081 3.33226C12.0541 2.36112 13.4851 1.81157 15.0055 1.81157C16.5267 1.81157 17.9576 2.36112 19.0029 3.33226L16.5372 11.9364C16.0593 11.7618 15.5432 11.6668 15.0055 11.6668C14.4679 11.6668 13.9517 11.7618 13.4738 11.9364L11.0081 3.33226ZM5.88137 26.0126C4.51769 25.5903 3.32865 24.6233 2.57082 23.305C1.81299 21.9866 1.57518 20.4725 1.89607 19.0819L10.5847 16.9313C10.7696 17.9889 11.3256 18.9198 12.1134 19.5845L5.88137 26.0126ZM12.2743 16.1558C12.2743 14.6493 13.4997 13.4239 15.0055 13.4239C16.512 13.4239 17.7372 14.6493 17.7372 16.1558C17.7372 17.6616 16.512 18.8868 15.0055 18.8868C13.4997 18.8871 12.2743 17.6616 12.2743 16.1558V16.1558Z"
      />
    </symbol>

    <symbol id="icon-light" viewBox="0 0 30 30">
      <path
        d="M14.9991 3.51514C14.5138 3.51514 14.1202 3.90865 14.1202 4.39404C14.1202 4.87943 14.5138 5.27295 14.9991 5.27295C17.9074 5.27295 20.2734 7.63861 20.2734 10.5464C20.2734 11.0318 20.667 11.4253 21.1524 11.4253C21.6377 11.4253 22.0313 11.0318 22.0313 10.5464C22.0313 6.66936 18.8767 3.51514 14.9991 3.51514Z"
      />
      <path
        d="M12.7345 0.236173C8.76356 1.06592 5.54383 4.25482 4.69663 8.25039C3.98125 11.6243 4.8628 15.0116 7.1152 17.5438C8.21624 18.7814 8.84764 20.4152 8.84764 22.0307V23.7885C8.84764 24.958 9.61329 25.9516 10.6695 26.2957C11.0168 28.348 12.7981 29.9994 15 29.9994C17.2013 29.9994 18.983 28.3485 19.3305 26.2957C20.3867 25.9516 21.1523 24.958 21.1523 23.7885V22.0306C21.1523 20.412 21.7858 18.7979 22.936 17.4856C24.6197 15.5649 25.5469 13.1004 25.5469 10.5463C25.5469 3.89213 19.4561 -1.16808 12.7345 0.236173ZM15 28.2416C13.8702 28.2416 12.8796 27.4642 12.5138 26.4194H17.4861C17.1204 27.4642 16.1298 28.2416 15 28.2416ZM19.3945 23.7885C19.3945 24.2731 19.0002 24.6674 18.5156 24.6674H11.4844C10.9997 24.6674 10.6055 24.2731 10.6055 23.7885V22.9096H19.3945V23.7885ZM21.6142 16.327C20.3884 17.7255 19.6342 19.4118 19.4429 21.1518H10.5573C10.3662 19.4109 9.61393 17.7079 8.4287 16.3755C6.55147 14.2652 5.81793 11.4365 6.41624 8.61502C7.11461 5.32123 9.79821 2.64555 13.094 1.95689C18.7205 0.781094 23.789 5.00641 23.789 10.5463C23.789 12.674 23.0167 14.7269 21.6142 16.327Z"
      />
    </symbol>

    <symbol id="icon-snow" viewBox="0 0 30 30">
      <path
        d="M27.5 16.4244L22.093 18.2849L19.5639 16.8314C19.5639 16.8314 19.5348 16.8314 19.5348 16.8023C19.7383 16.2791 19.8546 15.6686 19.8546 15.0581C19.8546 14.4477 19.7383 13.8663 19.5348 13.314C19.5348 13.314 19.5639 13.314 19.5639 13.2849L22.093 11.8314L27.5 13.6919C27.8779 13.8372 28.3139 13.6047 28.4302 13.2267C28.5755 12.8488 28.343 12.4128 27.9651 12.2965L23.779 10.8721L27.7034 8.60465C28.0523 8.40116 28.1686 7.93605 27.9651 7.58721C27.7616 7.23837 27.2965 7.12209 26.9476 7.32558L23.0232 9.59302L23.8662 5.26163C23.9534 4.85465 23.6918 4.47674 23.2848 4.38954C22.8779 4.30233 22.5 4.56395 22.4127 4.97093L21.3081 10.5814L18.779 12.0349C18.779 12.0349 18.75 12.0349 18.75 12.064C18.6337 11.9186 18.5174 11.8023 18.4011 11.686C17.7034 10.9884 16.7732 10.4942 15.7558 10.3488V10.3198V7.26744L20.0581 3.51744C20.3779 3.25581 20.4069 2.7907 20.1162 2.47093C19.8546 2.15116 19.3895 2.12209 19.0697 2.41279L15.7558 5.31977V0.755814C15.7558 0.348837 15.436 0 15 0C14.593 0 14.2441 0.319767 14.2441 0.755814V5.2907L10.9302 2.41279C10.6104 2.15116 10.1453 2.18023 9.88367 2.47093C9.62204 2.7907 9.65111 3.25581 9.94181 3.51744L14.2441 7.26744V10.2035V10.2326C13.2267 10.407 12.2965 10.8721 11.5988 11.5698C11.4825 11.686 11.3662 11.8314 11.25 11.9477C11.25 11.9477 11.2209 11.9477 11.2209 11.9186L8.69181 10.4651L7.58716 4.85465C7.49995 4.44767 7.12204 4.18605 6.71507 4.27326C6.30809 4.36047 6.04646 4.73837 6.13367 5.14535L6.9767 9.47674L3.05228 7.2093C2.70344 7.00581 2.23832 7.12209 2.03484 7.47093C1.83135 7.81977 1.94763 8.28488 2.29646 8.48837L6.22088 10.7558L2.03484 12.1802C1.65693 12.3256 1.42437 12.7326 1.56972 13.1105C1.71507 13.4884 2.12204 13.7209 2.49995 13.5756L7.90693 11.7151L10.436 13.1686C10.436 13.1686 10.4651 13.1686 10.4651 13.1977C10.2616 13.7209 10.1453 14.3314 10.1453 14.9419C10.1453 15.5523 10.2616 16.1337 10.4651 16.686C10.4651 16.686 10.436 16.686 10.436 16.7151L7.936 18.2267L2.52902 16.3663C2.15111 16.2209 1.71507 16.4535 1.59879 16.8314C1.45344 17.2093 1.686 17.6453 2.06391 17.7616L6.24995 19.186L2.32553 21.4535C1.9767 21.657 1.86042 22.1221 2.06391 22.4709C2.26739 22.8198 2.73251 22.936 3.08135 22.7326L7.00577 20.4651L6.16274 24.7965C6.07553 25.2035 6.33716 25.5814 6.74414 25.6686C7.15111 25.7558 7.52902 25.4942 7.61623 25.0872L8.72088 19.4767L11.25 18.0233C11.25 18.0233 11.279 18.0233 11.279 17.9942C11.3953 18.1395 11.5116 18.2558 11.6279 18.3721C12.3255 19.0698 13.2558 19.564 14.2732 19.7093V19.7384V22.6744L9.97088 26.4244C9.65111 26.686 9.62204 27.1512 9.91274 27.4709C10.1744 27.7907 10.6395 27.8198 10.9593 27.5291L14.2732 24.6221V29.2442C14.2732 29.6512 14.593 30 15.029 30C15.436 30 15.7848 29.6802 15.7848 29.2442V24.7093L19.0988 27.6163C19.4186 27.8779 19.8837 27.8488 20.1453 27.5581C20.4069 27.2384 20.3779 26.7733 20.0872 26.5116L15.7558 22.7326V19.7965V19.7674C16.7732 19.593 17.7034 19.1279 18.4011 18.4302C18.5174 18.314 18.6337 18.1686 18.75 18.0523C18.75 18.0523 18.779 18.0523 18.779 18.0814L21.3081 19.5349L22.4127 25.1454C22.5 25.5523 22.8779 25.814 23.2848 25.7267C23.6918 25.6395 23.9534 25.2616 23.8662 24.8547L23.0232 20.5233L26.9476 22.7907C27.2965 22.9942 27.7616 22.8779 27.9651 22.5291C28.1686 22.1802 28.0523 21.7151 27.7034 21.5116L23.779 19.2442L27.9651 17.8198C28.343 17.6744 28.5755 17.2674 28.4302 16.8895C28.2848 16.5116 27.8779 16.2791 27.5 16.4244ZM17.3546 17.3547C16.7441 17.9651 15.9302 18.314 15 18.314C14.0988 18.314 13.2558 17.936 12.6453 17.3547C12.0348 16.7442 11.686 15.9302 11.686 15C11.686 14.0698 12.0639 13.2558 12.6453 12.6453C13.2558 12.0349 14.0697 11.686 15 11.686C15.9011 11.686 16.7441 12.064 17.3546 12.6453C17.9651 13.2558 18.3139 14.0698 18.3139 15C18.3139 15.9012 17.936 16.7442 17.3546 17.3547Z"
      />
    </symbol>

    <symbol id="icon-water" viewBox="0 0 30 30">
      <g clip-path="url(#clip0)">
        <path
          d="M17.771 3.30751C17.0783 2.28871 16.467 1.35142 15.8965 0.495627C15.815 0.373372 15.6927 0.251116 15.5704 0.169612C15.0814 -0.156403 14.4294 0.00660475 14.1034 0.495627C13.5736 1.35142 12.9623 2.24796 12.2288 3.30751C9.0094 8.03472 4.20068 15.1663 4.20068 19.2415C4.20068 22.2164 5.42324 24.906 7.37933 26.8621C9.33542 28.7774 12.025 30 14.9999 30C17.9748 30 20.6644 28.7774 22.6205 26.8213C24.5766 24.8652 25.7992 22.1756 25.7992 19.2007C25.7992 15.1256 20.9904 8.03472 17.771 3.30751ZM21.1534 25.3543C19.5641 26.9436 17.4043 27.8809 14.9999 27.8809C12.5956 27.8809 10.4357 26.9028 8.84639 25.3543C7.25707 23.7649 6.31978 21.6051 6.31978 19.2007C6.31978 15.7776 10.9247 8.97202 13.9811 4.44856C14.3479 3.91878 14.6739 3.38901 14.9999 2.94074C15.3259 3.38901 15.652 3.91878 16.0187 4.44856C19.0751 9.01277 23.6801 15.7776 23.6801 19.2007C23.6801 21.6051 22.702 23.7649 21.1534 25.3543Z"
        />
        <path
          d="M21.3165 18.4672C20.746 18.4264 20.2569 18.8747 20.2162 19.4452C20.1754 20.3418 19.8902 21.1975 19.4419 21.9311C18.9936 22.6646 18.3416 23.3166 17.5673 23.7242C17.0783 24.0094 16.8745 24.6615 17.1598 25.1505C17.4858 25.721 18.1378 25.884 18.6269 25.5988C19.7272 24.9875 20.6237 24.0909 21.235 23.0721C21.887 22.0533 22.2538 20.8308 22.2945 19.5675C22.3353 18.9969 21.887 18.5079 21.3165 18.4672Z"
        />
      </g>
      <defs>
        <clipPath id="clip0">
          <rect width="30" height="30" />
        </clipPath>
      </defs>
    </symbol>

    <symbol id="icon-shield" viewBox="0 0 30 30">
      <g clip-path="url(#clip0)">
        <path
          d="M27.0202 3.56736L15.2527 0.0370898C15.0881 -0.0123633 14.9124 -0.0123633 14.7476 0.0370898L2.98 3.56736C2.60823 3.67887 2.35364 4.02105 2.35364 4.40918V17.3535C2.35364 19.0371 3.0352 20.7606 4.3794 22.476C5.40608 23.7862 6.82639 25.1018 8.60096 26.3863C11.582 28.5442 14.5175 29.868 14.641 29.9232C14.7552 29.9744 14.8776 30 15.0001 30C15.1225 30 15.245 29.9745 15.3592 29.9232C15.4827 29.868 18.4181 28.5442 21.3992 26.3863C23.1737 25.1018 24.594 23.7862 25.6207 22.476C26.9649 20.7606 27.6465 19.0372 27.6465 17.3535V4.40918C27.6465 4.02105 27.392 3.67887 27.0202 3.56736ZM25.8887 17.3535C25.8887 20.3331 22.8991 23.127 20.3911 24.9461C18.1426 26.577 15.8623 27.7342 15.0002 28.1499C14.138 27.7342 11.8577 26.577 9.60918 24.9461C7.10114 23.127 4.11145 20.3331 4.11145 17.3535V5.06309L15.0001 1.79648L25.8887 5.06309V17.3535Z"
        />
        <path
          fill-rule="evenodd"
          clip-rule="evenodd"
          d="M22.6045 11.0058C23.1015 11.0058 23.5045 11.4087 23.5045 11.9058V18.0374L23.5041 18.0506C23.4946 18.3719 23.3515 18.6563 23.2522 18.8305C23.1346 19.0366 22.9778 19.2554 22.7992 19.4773C22.4398 19.9235 21.9384 20.4475 21.333 21.0043C20.12 22.1201 18.4345 23.4184 16.5026 24.5454C16.0732 24.7958 15.5221 24.6508 15.2717 24.2214C15.0212 23.7921 15.1663 23.241 15.5956 22.9906C17.4097 21.9324 18.9915 20.7125 20.1144 19.6796C20.6771 19.162 21.1108 18.704 21.3972 18.3483C21.5414 18.1693 21.6353 18.0322 21.6888 17.9384C21.6949 17.9278 21.7001 17.9183 21.7045 17.91V11.9058C21.7045 11.4087 22.1074 11.0058 22.6045 11.0058Z"
        />
      </g>
      <defs>
        <clipPath id="clip0">
          <rect width="30" height="30" />
        </clipPath>
      </defs>
    </symbol>

    <symbol id="icon-plus" viewBox="0 0 20 20">
      <g
        id="g47"
        transform="matrix(0.06666644,0,0,0.066666,-6.6666444e-5,0)"
      >
        <g id="g45">
          <path
            d="M 150,0 C 67.159,0 0.001,67.159 0.001,150 c 0,82.838 67.157,150.003 149.997,150.003 82.84,0 150.004,-67.165 150.004,-150.003 C 300.002,67.159 232.839,0 150,0 Z m 63.281,166.501 h -48.27 v 50.469 c -0.003,8.463 -6.863,15.323 -15.328,15.323 -8.468,0 -15.328,-6.86 -15.328,-15.328 V 166.501 H 87.37 c -8.466,-0.003 -15.323,-6.863 -15.328,-15.328 0,-8.463 6.863,-15.326 15.328,-15.328 l 46.984,0.003 V 91.057 c 0,-8.466 6.863,-15.328 15.326,-15.328 8.468,0 15.331,6.863 15.328,15.328 l 0.003,44.787 48.265,0.005 c 8.466,-0.005 15.331,6.86 15.328,15.328 0.003,8.466 -6.862,15.324 -15.323,15.324 z"
            id="path43"
          />
        </g>
      </g>
    </symbol>

    <symbol id="icon-minus" viewBox="0 0 20 20">
      <g
        id="g47"
        transform="matrix(0.06666644,0,0,0.066666,-6.6666444e-5,0)"
      >
        <g id="g45">
          <path
            d="M 150,0 C 67.159,0 0.001,67.159 0.001,150 c 0,82.838 67.157,150.003 149.997,150.003 82.84,0 150.004,-67.165 150.004,-150.003 C 300.002,67.159 232.839,0 150,0 Z m 63.281,166.501 c -91.26467,0 -18.20457,0.0234 -125.911,0 -8.466,-0.003 -15.323,-6.863 -15.328,-15.328 0,-8.463 6.863,-15.326 15.328,-15.328 116.76598,0 59.50594,0.004 125.906,0.004 8.466,-0.005 15.331,6.86 15.328,15.328 0.003,8.466 -6.862,15.324 -15.323,15.324 z"
            id="path43"
          />
        </g>
      </g>
    </symbol>

    <symbol id="icon-add" viewBox="0 0 20 20">
      <g id="g13" transform="matrix(0.03515625,0,0,0.03515625,1,1)">
        <path
          d="M 480,224 H 288 V 32 C 288,14.327 273.673,0 256,0 238.327,0 224,14.327 224,32 V 224 H 32 c -17.673,0 -32,14.327 -32,32 0,17.673 14.327,32 32,32 h 192 v 192 c 0,17.673 14.327,32 32,32 17.673,0 32,-14.327 32,-32 V 288 h 192 c 17.673,0 32,-14.327 32,-32 0,-17.673 -14.327,-32 -32,-32 z"
          id="path11"
        />
      </g>
    </symbol>

    <symbol id="icon-remove" viewBox="0 0 20 20">
      <g id="g29" transform="matrix(0.03515625,0,0,0.034375,1,1.1)">
        <path
          d="M 480,288 H 32 C 14.327,288 0,273.673 0,256 0,238.327 14.327,224 32,224 h 448 c 17.673,0 32,14.327 32,32 0,17.673 -14.327,32 -32,32 z"
          id="path27"
        />
      </g>
    </symbol>

    <symbol id="icon-cancel" viewBox="0 0 20 20">
      <g
        id="g19"
        transform="matrix(0.03124875,0,0,0.03124875,1.9999922,1.9999922)"
      >
        <path
          d="M 301.258,256.01 502.645,54.645 c 12.501,-12.501 12.501,-32.769 0,-45.269 -12.501,-12.501 -32.769,-12.501 -45.269,0 v 0 L 256.01,210.762 54.645,9.376 c -12.501,-12.501 -32.769,-12.501 -45.269,0 -12.5,12.501 -12.501,32.769 0,45.269 L 210.762,256.01 9.376,457.376 c -12.501,12.501 -12.501,32.769 0,45.269 12.501,12.5 32.769,12.501 45.269,0 L 256.01,301.258 457.375,502.645 c 12.501,12.501 32.769,12.501 45.269,0 12.501,-12.501 12.501,-32.769 0,-45.269 z"
          id="path17"
        />
      </g>
    </symbol>

    <symbol id="icon-copy" viewBox="0 0 20 20">
      <path
        d="M 14.8,4.8145 10.7312,1 H 4.4 A 2.4,2.25 0 0 0 2,3.25 V 16 H 14.8 Z M 3.6,14.5 V 3.25 A 0.8,0.75 0 0 1 4.4,2.5 H 10 v 3 h 3.2 v 9 z M 18,7.75 V 19 H 6 V 17.5 H 16.4 V 6.25 Z"
        id="path9"
        style="stroke-width: 0.774596"
      />
    </symbol>

    <symbol id="icon-pen" viewBox="0 0 20 20">
      <path
        d="M 19.973762,4.6593437 18.076646,2.7646666 19.966289,0.87745387 19.095179,0.00746421 17.205536,1.894677 15.308421,0 2.2912572,13.000467 1.0045706,17.468571 1.3080813,17.771692 0,19.07809 0.87110973,19.94808 2.179191,18.641681 2.4827017,18.944842 6.9565995,17.65981 17.068093,7.5612777 l 0.872792,0.8716713 -3.845605,3.84066 0.87111,0.86999 4.716716,-4.71065 -1.743904,-1.7416608 z m -1.742219,0 -1.16345,1.1619548 L 14.145011,2.9019342 15.30846,1.7399793 Z M 2.3892791,17.111478 3.1424915,14.495932 5.4591678,16.809629 2.8402538,17.561874 Z M 6.6334598,16.242473 3.7103779,13.32315 13.2739,3.7719239 16.196983,6.6912882 Z"
        id="path39"
        style="stroke-width: 0.0410384"
      />
    </symbol>

    <symbol id="icon-save" viewBox="0 0 20 20">
      <g
        id="g13"
        transform="matrix(0.03546756,0,0,0.04776709,1,-1.8710671)"
      >
        <path
          d="m 163.865,415.99911 c -14.406,0.005 -28.222,-5.22972 -38.4,-14.55086 L 9.369,295.34264 c -12.492,-11.42491 -16.2715139,-30.2163 0,-41.3696 21.438613,-9.5711 33.268195,8.04792 43.34246,15.52817 L 164.73604,368.61696 451.65717,107.6609 c 19.761,-14.672747 31.89863,-24.305286 46.47983,-18.054494 27.14273,11.635774 13.53897,31.316784 0,41.369604 L 202.265,401.44825 c -10.178,9.32114 -23.994,14.55634 -38.4,14.55086 z"
          id="path11"
          style="stroke-width: 0.956183"
        />
      </g>
    </symbol>

    <symbol id="icon-plan-arrow-left" viewBox="0 0 20 20">
      <path
        d="M 15.399997,9.250135 H 6.048503 L 9.2243181,5.2803536 c 0.2343015,-0.2928772 0.2341515,-0.7676309 0,-1.0606956 -0.2343007,-0.2928774 -0.6141029,-0.2928774 -0.848554,0 L 4.1757449,9.469699 c -0.2343015,0.2928772 -0.2343015,0.767818 -1.5e-4,1.060508 l 4.2000192,5.250041 C 8.4927648,15.926687 8.6463659,16 8.7999667,16 c 0.1534507,0 0.3070515,-0.07331 0.4243514,-0.219939 0.2343015,-0.29269 0.2341515,-0.767631 0,-1.060321 L 6.048353,10.750146 h 9.351644 c 0.331351,0 0.600153,-0.336002 0.600003,-0.750006 0,-0.4141903 -0.268652,-0.750005 -0.600003,-0.750005 z"
        id="path13"
        style="stroke-width: 0.167706"
      />
    </symbol>

    <symbol id="icon-plan-arrow-right" viewBox="0 0 20 20">
      <path
        d="m 4.5999962,10.750052 h 9.3515418 l -3.17578,3.969782 c -0.234299,0.292877 -0.234299,0.767631 0,1.060508 0.234298,0.292877 0.614245,0.292877 0.848544,0 l 4.199974,-5.250041 c 0.234299,-0.292877 0.234299,-0.7678186 0,-1.0605083 L 11.624302,4.2197515 C 11.507153,4.0733132 11.353554,4 11.199955,4 c -0.153449,0 -0.307048,0.073313 -0.424197,0.2197515 -0.234299,0.292878 -0.234299,0.7678185 0,1.060509 l 3.17578,3.9697807 H 4.5999962 C 4.2686485,9.2500412 4,9.5858559 4,10.000047 c 0,0.414191 0.2686485,0.750005 0.5999962,0.750005 z"
        id="path13"
        style="stroke-width: 0.167705"
      />
    </symbol>

    <symbol id="icon-plan-arrow-up" viewBox="0 0 20 20">
      <path
        d="M 10.750052,15.400004 V 6.0484623 l 3.969782,3.1757805 c 0.292876,0.2342977 0.767631,0.2342977 1.060508,0 0.292877,-0.2342993 0.292877,-0.6142463 0,-0.8485452 L 10.530301,4.175724 c -0.292877,-0.2342986 -0.7678186,-0.2342986 -1.0605076,0 L 4.2197519,8.3756976 C 4.0733131,8.492847 4,8.6462958 4,8.800045 c 0,0.1534485 0.073313,0.3070485 0.2197519,0.4241978 0.2928773,0.2342977 0.7678183,0.2342977 1.0605081,0 L 9.2500404,6.0484623 V 15.400004 C 9.2500404,15.731352 9.5858559,16 10.000046,16 c 0.414192,0 0.750006,-0.268648 0.750006,-0.599996 z"
        id="path13"
        style="stroke-width: 0.167705"
      />
    </symbol>

    <symbol id="icon-plan-arrow-down" viewBox="0 0 20 20">
      <path
        d="m 9.2499475,4.5999963 v 9.3515417 l -3.9697814,-3.17578 c -0.2928773,-0.234299 -0.767631,-0.234299 -1.0605081,0 -0.2928774,0.234298 -0.2928774,0.614245 0,0.848544 l 5.250041,4.199974 c 0.2928772,0.234299 0.767818,0.234299 1.060508,0 l 5.250041,-4.199974 C 15.926687,11.507153 16,11.353554 16,11.199955 c 0,-0.153449 -0.07331,-0.307048 -0.219752,-0.424197 -0.292877,-0.234299 -0.767818,-0.234299 -1.060508,0 l -3.969781,3.17578 V 4.5999963 C 10.749959,4.2687983 10.414144,4 9.9999527,4 9.5857622,4 9.2499475,4.2686483 9.2499475,4.5999963 Z"
        id="path13"
        style="stroke-width: 0.167705"
      />
    </symbol>

    <symbol id="icon-plan-rotate-left" viewBox="0 0 20 20">
      <path
        d="m 10,12.666667 c -1.4666667,0 -2.6666667,-1.2 -2.6666667,-2.666667 0,-1.4666667 1.2,-2.6666667 2.6666667,-2.6666667 1.466667,0 2.666667,1.2 2.666667,2.6666667 0,1.466667 -1.2,2.666667 -2.666667,2.666667 z m 0,-4.0000003 c -0.7333333,0 -1.3333333,0.6 -1.3333333,1.3333333 0,0.733333 0.6,1.333333 1.3333333,1.333333 0.733333,0 1.333333,-0.6 1.333333,-1.333333 0,-0.7333333 -0.6,-1.3333333 -1.333333,-1.3333333 z"
        id="path41"
        style="stroke-width: 0.666667"
      />
      <path
        d="M 5.5751014,7.7016018 H 2.9084351 c -0.4,0 -0.6666667,-0.266667 -0.6666667,-0.666667 V 4.3682685 c 0,-0.4 0.2666667,-0.6666667 0.6666667,-0.6666667 0.4,0 0.6666666,0.2666667 0.6666666,0.6666667 v 2.0000003 h 1.9999997 c 0.4,0 0.666667,0.266666 0.666667,0.666666 0,0.4 -0.266667,0.666667 -0.666667,0.666667 z"
        id="path35"
        style="stroke-width: 0.666667"
      />
      <path
        d="M 10,18 C 5.6,18 2,14.4 2,10 2,9.6 2.2666667,9.3333333 2.6666667,9.3333333 c 0.4,0 0.6666666,0.2666667 0.6666666,0.6666667 0,3.666667 3,6.666667 6.6666667,6.666667 3.666667,0 6.666667,-3 6.666667,-6.666667 0,-3.6666667 -3,-6.6666667 -6.666667,-6.6666667 -2.2,0 -4.3333333,1.1333334 -5.5333333,2.9333334 -0.2,0.3333333 -0.6,0.4 -0.9333334,0.2 -0.3333333,-0.2 -0.4,-0.6 -0.2,-0.9333334 C 4.8666667,3.3333333 7.3333333,2 10,2 c 4.4,0 8,3.6 8,8 0,4.4 -3.6,8 -8,8 z"
        id="path29"
        style="stroke-width: 0.666667"
      />
    </symbol>

    <symbol id="icon-plan-rotate-right" viewBox="0 0 20 20">
      <path
        d="M 10,18 C 5.6,18 2,14.4 2,10 2,5.6 5.6,2 10,2 c 2.666666,0 5.133334,1.3333334 6.666666,3.5333334 0.2,0.3333332 0.133334,0.7333332 -0.2,0.9333332 -0.333332,0.2 -0.733332,0.1333334 -0.933332,-0.2 -1.2,-1.8 -3.333334,-2.9333332 -5.533334,-2.9333332 -3.6666666,0 -6.6666666,3 -6.6666666,6.6666666 0,3.666666 3,6.666666 6.6666666,6.666666 3.666666,0 6.666666,-3 6.666666,-6.666666 0,-0.4 0.266668,-0.6666664 0.666668,-0.6666664 C 17.733334,9.3333336 18,9.6 18,10 c 0,4.4 -3.6,8 -8,8 z"
        id="path29"
        style="stroke-width: 0.666667"
      />
      <path
        d="M 16.666666,7.3333334 H 14 c -0.4,0 -0.666666,-0.2666668 -0.666666,-0.6666668 C 13.333334,6.2666666 13.6,6 14,6 h 2 V 4 c 0,-0.4 0.266666,-0.6666666 0.666666,-0.6666666 0.4,0 0.666668,0.2666666 0.666668,0.6666666 v 2.6666666 c 0,0.4 -0.266668,0.6666668 -0.666668,0.6666668 z"
        id="path35"
        style="stroke-width: 0.666667"
      />
      <path
        d="m 10,12.666666 c -1.4666664,0 -2.6666666,-1.2 -2.6666666,-2.666666 0,-1.4666664 1.2000002,-2.6666666 2.6666666,-2.6666666 1.466666,0 2.666666,1.2000002 2.666666,2.6666666 0,1.466666 -1.2,2.666666 -2.666666,2.666666 z m 0,-3.9999996 c -0.7333336,0 -1.3333336,0.6 -1.3333336,1.3333336 0,0.733334 0.6,1.333334 1.3333336,1.333334 0.733334,0 1.333334,-0.6 1.333334,-1.333334 0,-0.7333336 -0.6,-1.3333336 -1.333334,-1.3333336 z"
        id="path41"
        style="stroke-width: 0.666667"
      />
    </symbol>

    <symbol id="add-layer" viewBox="0 0 16 16">
      <path
        d="M8.235 1.559a.5.5 0 0 0-.47 0l-7.5 4a.5.5 0 0 0 0 .882L3.188 8 .264 9.559a.5.5 0 0 0 0 .882l7.5 4a.5.5 0 0 0 .47 0l7.5-4a.5.5 0 0 0 0-.882L12.813 8l2.922-1.559a.5.5 0 0 0 0-.882l-7.5-4zm3.515 7.008L14.438 10 8 13.433 1.562 10 4.25 8.567l3.515 1.874a.5.5 0 0 0 .47 0l3.515-1.874zM8 9.433 1.562 6 8 2.567 14.438 6 8 9.433z"
      />
    </symbol>

    <symbol id="remove-layer" viewBox="0 0 16 16">
      <path
        d="M5.884 6.68a.5.5 0 1 0-.768.64L7.349 10l-2.233 2.68a.5.5 0 0 0 .768.64L8 10.781l2.116 2.54a.5.5 0 0 0 .768-.641L8.651 10l2.233-2.68a.5.5 0 0 0-.768-.64L8 9.219l-2.116-2.54z"
      />
      <path
        d="M14 14V4.5L9.5 0H4a2 2 0 0 0-2 2v12a2 2 0 0 0 2 2h8a2 2 0 0 0 2-2zM9.5 3A1.5 1.5 0 0 0 11 4.5h2V14a1 1 0 0 1-1 1H4a1 1 0 0 1-1-1V2a1 1 0 0 1 1-1h5.5v2z"
      />
    </symbol>

    <symbol id="icon-winter" viewBox="0 0 19 18">
      <g opacity="0.4" clip-path="url(#clip0)">
        <path
          d="M15.0615 11.1094H3.45996C2.61445 11.1094 1.81486 10.7815 1.20845 10.186C0.597293 9.58595 0.260742 8.79015 0.260742 7.94531C0.260742 7.10047 0.597293 6.30468 1.20845 5.70459C1.68707 5.23463 2.28609 4.93133 2.93304 4.82435C2.93276 4.81008 2.93262 4.7957 2.93262 4.78125C2.93262 2.45503 4.82515 0.5625 7.15137 0.5625C8.01403 0.5625 8.84305 0.822199 9.54881 1.31354C10.0456 1.65941 10.4581 2.10255 10.7647 2.61587C11.2597 2.30885 11.8307 2.14453 12.4248 2.14453C14.0028 2.14453 15.3147 3.3056 15.551 4.81837C16.2123 4.91962 16.8251 5.22552 17.313 5.70459C17.9242 6.30468 18.2607 7.10047 18.2607 7.94531C18.2607 8.79015 17.9242 9.58595 17.313 10.186C16.7066 10.7815 15.907 11.1094 15.0615 11.1094ZM3.45996 5.83594C2.27745 5.83594 1.31543 6.7822 1.31543 7.94531C1.31543 9.10842 2.27745 10.0547 3.45996 10.0547H15.0615C16.244 10.0547 17.2061 9.10842 17.2061 7.94531C17.2061 6.7822 16.244 5.83594 15.0615 5.83594H14.5342V5.30859C14.5342 4.14548 13.5879 3.19922 12.4248 3.19922C11.8705 3.19922 11.3462 3.41438 10.9484 3.80507L10.3808 4.36254L10.0885 3.62257C9.60717 2.40437 8.45436 1.61719 7.15137 1.61719C5.4067 1.61719 3.9873 3.03659 3.9873 4.78125C3.9873 4.90598 4.00689 5.03993 4.02759 5.18172L4.12206 5.83594H3.45996Z"
          fill="white"
        />
        <path
          d="M5.04199 15.3281C4.16966 15.3281 3.45996 14.6184 3.45996 13.7461C3.45996 12.8738 4.16966 12.1641 5.04199 12.1641C5.91432 12.1641 6.62402 12.8738 6.62402 13.7461C6.62402 14.6184 5.91432 15.3281 5.04199 15.3281ZM5.04199 13.2188C4.75121 13.2188 4.51465 13.4553 4.51465 13.7461C4.51465 14.0369 4.75121 14.2734 5.04199 14.2734C5.33277 14.2734 5.56934 14.0369 5.56934 13.7461C5.56934 13.4553 5.33277 13.2188 5.04199 13.2188Z"
          fill="white"
        />
        <path
          d="M9.26074 17.4375C8.38841 17.4375 7.67871 16.7278 7.67871 15.8555C7.67871 14.9831 8.38841 14.2734 9.26074 14.2734C10.1331 14.2734 10.8428 14.9831 10.8428 15.8555C10.8428 16.7278 10.1331 17.4375 9.26074 17.4375ZM9.26074 15.3281C8.96996 15.3281 8.7334 15.5647 8.7334 15.8555C8.7334 16.1462 8.96996 16.3828 9.26074 16.3828C9.55152 16.3828 9.78809 16.1462 9.78809 15.8555C9.78809 15.5647 9.55152 15.3281 9.26074 15.3281Z"
          fill="white"
        />
        <path
          d="M13.4795 15.3281C12.6072 15.3281 11.8975 14.6184 11.8975 13.7461C11.8975 12.8738 12.6072 12.1641 13.4795 12.1641C14.3518 12.1641 15.0615 12.8738 15.0615 13.7461C15.0615 14.6184 14.3518 15.3281 13.4795 15.3281ZM13.4795 13.2188C13.1887 13.2188 12.9521 13.4553 12.9521 13.7461C12.9521 14.0369 13.1887 14.2734 13.4795 14.2734C13.7703 14.2734 14.0068 14.0369 14.0068 13.7461C14.0068 13.4553 13.7703 13.2188 13.4795 13.2188Z"
          fill="white"
        />
      </g>
      <defs>
        <clipPath id="clip0">
          <rect
            width="18"
            height="18"
            fill="white"
            transform="translate(0.260742)"
          />
        </clipPath>
      </defs>
    </symbol>
    
    <symbol id="icon-time" viewBox="0 0 27 28">
        <path
          d="M16.2273 25.5808C16.0047 25.6363 15.7777 25.6855 15.5524 25.727C14.9634 25.8366 14.574 26.403 14.683 26.9925C14.7368 27.2825 14.9015 27.5241 15.1251 27.6818C15.3556 27.844 15.6489 27.9173 15.9478 27.8617C16.2161 27.8119 16.4866 27.7533 16.7519 27.6871C17.3335 27.5423 17.6879 26.9531 17.5428 26.3718C17.398 25.7899 16.8093 25.4359 16.2273 25.5808Z"
        />
        <path
          d="M24.254 11.0323C24.33 11.2614 24.4752 11.4485 24.6585 11.5777C24.9304 11.7692 25.2861 11.8336 25.6256 11.7214C26.1947 11.5324 26.5031 10.9187 26.3148 10.3499C26.229 10.0905 26.1338 9.8304 26.0324 9.57712C25.8098 9.02052 25.1784 8.74953 24.6215 8.97217C24.0652 9.1947 23.7941 9.82622 24.0169 10.383C24.1021 10.5959 24.1819 10.8144 24.254 11.0323Z"
        />
        <path
          d="M19.7543 24.0311C19.5629 24.1575 19.3652 24.2799 19.1662 24.3945C18.6468 24.6941 18.4689 25.358 18.7684 25.8772C18.8497 26.0184 18.958 26.1338 19.0827 26.222C19.4175 26.4576 19.8723 26.4929 20.2509 26.2748C20.4876 26.1383 20.7229 25.9931 20.9509 25.8423C21.4509 25.512 21.5885 24.8385 21.258 24.3384C20.9276 23.838 20.2545 23.7006 19.7543 24.0311Z"
        />
        <path
          d="M26.9897 14.0638C26.966 13.4647 26.4614 12.9984 25.8622 13.0218C25.2637 13.0455 24.797 13.5502 24.8206 14.1491C24.8295 14.378 24.8319 14.6104 24.8266 14.8392C24.8182 15.2149 25.0019 15.5498 25.2875 15.751C25.4576 15.8708 25.664 15.9433 25.8879 15.9484C26.487 15.9617 26.9834 15.4865 26.9967 14.8872C27.0027 14.6139 27.0004 14.337 26.9897 14.0638Z"
        />
        <path
          d="M24.0768 21.1758C23.5964 20.8153 22.9168 20.9132 22.557 21.3927C22.4192 21.5763 22.2741 21.7577 22.1256 21.9324C21.7373 22.3886 21.7921 23.0738 22.2483 23.4623C22.2743 23.4844 22.3006 23.5047 22.3279 23.5237C22.7814 23.8434 23.4117 23.77 23.7784 23.3396C23.9558 23.1313 24.1288 22.9146 24.2934 22.6953C24.6533 22.2158 24.5559 21.5357 24.0768 21.1758Z"
        />
        <path
          d="M25.6724 17.2521C25.1004 17.0728 24.4913 17.3912 24.312 17.9632C24.2434 18.1817 24.1674 18.4013 24.0853 18.6163C23.9051 19.0897 24.0778 19.6105 24.4736 19.8896C24.5462 19.9407 24.6262 19.9839 24.7131 20.0168C25.2731 20.2305 25.9002 19.9495 26.1137 19.3892C26.2111 19.1336 26.3016 18.8723 26.3834 18.6125C26.5624 18.0404 26.2442 17.4315 25.6724 17.2521Z"
        />
        <path
          d="M11.4918 25.7369C10.5214 25.5627 9.59046 25.266 8.70774 24.8521C8.69729 24.8467 8.68795 24.8405 8.67698 24.8355C8.46896 24.7376 8.2613 24.6327 8.06002 24.5231C8.05932 24.5223 8.05804 24.5218 8.05694 24.5213C7.68764 24.318 7.32721 24.0929 6.97706 23.8464C1.8712 20.2497 0.643551 13.1696 4.24049 8.0638C5.02263 6.95397 5.96914 6.02806 7.02436 5.29421C7.03736 5.28516 7.05036 5.27616 7.06325 5.26705C10.7817 2.70495 15.8307 2.53228 19.7791 5.16507L18.9311 6.39034C18.6953 6.73138 18.8403 6.97991 19.2531 6.94276L22.9367 6.61298C23.3499 6.57584 23.597 6.21837 23.4859 5.81929L22.4967 2.25532C22.386 1.85577 22.1025 1.80795 21.8665 2.14893L21.0165 3.3771C18.1189 1.43203 14.6436 0.690338 11.1941 1.28849C10.8467 1.34862 10.5041 1.42222 10.1663 1.50788C10.1637 1.50835 10.1616 1.50864 10.1595 1.5091C10.1464 1.51229 10.1332 1.51653 10.1205 1.52007C7.14595 2.28393 4.55071 4.01879 2.69885 6.49406C2.68323 6.51258 2.66716 6.53068 2.65242 6.55082C2.59084 6.63376 2.52972 6.71862 2.46988 6.80347C2.37203 6.94253 2.27556 7.08508 2.18328 7.22762C2.17173 7.2448 2.16291 7.26227 2.15281 7.27963C0.62463 9.6477 -0.112472 12.3854 0.013938 15.1726C0.0142282 15.1818 0.0137058 15.191 0.013938 15.2004C0.0261843 15.4727 0.047775 15.7487 0.077085 16.0204C0.0786521 16.038 0.0825407 16.0546 0.0855008 16.0721C0.115797 16.3453 0.153813 16.6192 0.201464 16.8931C0.685746 19.687 2.00371 22.2011 3.97862 24.1573C3.9832 24.1619 3.98796 24.1669 3.99261 24.1716C3.99423 24.1734 3.99603 24.1744 3.9976 24.176C4.5282 24.6994 5.10534 25.1834 5.72677 25.6211C7.35304 26.767 9.16393 27.5245 11.1087 27.8735C11.6988 27.9796 12.2625 27.5867 12.3684 26.9969C12.4742 26.4067 12.0817 25.8426 11.4918 25.7369Z"
        />
        <path
          d="M12.8339 5.81738C12.3485 5.81738 11.9554 6.21089 11.9554 6.69558V15.4449L19.9573 19.5814C20.0861 19.6481 20.224 19.6795 20.3597 19.6795C20.6775 19.6795 20.9845 19.5064 21.1406 19.2044C21.3631 18.7734 21.1947 18.2439 20.7637 18.0214L13.7115 14.3754V6.69558C13.7114 6.21089 13.3187 5.81738 12.8339 5.81738Z"
        />
    </symbol>

    <symbol id="icon-sun" viewBox="0 0 30 31">
        <path
          d="M15 3.30127C14.4823 3.30127 14.0625 2.8815 14.0625 2.36377V1.42627C14.0625 0.908535 14.4823 0.48877 15 0.48877C15.5178 0.48877 15.9375 0.908535 15.9375 1.42627V2.36377C15.9375 2.8815 15.5178 3.30127 15 3.30127Z"
        />
        <path
          d="M5.71919 7.14558C5.47925 7.14558 5.23937 7.05406 5.05632 6.87095L4.39339 6.20808C4.02724 5.84199 4.02724 5.24837 4.39339 4.88228C4.75948 4.51613 5.3531 4.51613 5.71919 4.88228L6.38206 5.54515C6.74821 5.91124 6.74821 6.50486 6.38206 6.87095C6.19901 7.05406 5.95913 7.14558 5.71919 7.14558Z"
        />
        <path
          d="M1.875 16.4263H0.9375C0.419766 16.4263 0 16.0065 0 15.4888C0 14.971 0.419766 14.5513 0.9375 14.5513H1.875C2.39273 14.5513 2.8125 14.971 2.8125 15.4888C2.8125 16.0065 2.39273 16.4263 1.875 16.4263Z"
        />
        <path
          d="M5.05626 26.37C4.81632 26.37 4.57644 26.2784 4.39339 26.0953C4.02724 25.7292 4.02724 25.1356 4.39339 24.7695L5.05626 24.1066C5.42235 23.7405 6.01597 23.7405 6.38206 24.1066C6.74821 24.4727 6.74821 25.0664 6.38206 25.4324L5.71919 26.0953C5.53614 26.2784 5.2962 26.37 5.05626 26.37Z"
        />
        <path
          d="M15 30.4888C14.4823 30.4888 14.0625 30.069 14.0625 29.5513V28.6138C14.0625 28.096 14.4823 27.6763 15 27.6763C15.5178 27.6763 15.9375 28.096 15.9375 28.6138V29.5513C15.9375 30.069 15.5178 30.4888 15 30.4888Z"
        />
        <path
          d="M24.9437 26.3702C24.7038 26.3702 24.464 26.2786 24.2809 26.0956L23.6179 25.4327C23.2518 25.0666 23.2518 24.4731 23.6179 24.1069C23.984 23.7408 24.5775 23.7407 24.9437 24.1069L25.6067 24.7697C25.9727 25.1358 25.9728 25.7294 25.6067 26.0955C25.4236 26.2786 25.1837 26.3702 24.9437 26.3702Z"
        />
        <path
          d="M29.0625 16.4263H28.125C27.6072 16.4263 27.1875 16.0065 27.1875 15.4888C27.1875 14.971 27.6072 14.5513 28.125 14.5513H29.0625C29.5803 14.5513 30 14.971 30 15.4888C30 16.0065 29.5803 16.4263 29.0625 16.4263Z"
        />
        <path
          d="M24.2808 7.14555C24.0408 7.14555 23.801 7.05403 23.6179 6.87092C23.2518 6.50477 23.2518 5.91122 23.6179 5.54512L24.2809 4.88225C24.647 4.5161 25.2406 4.51616 25.6067 4.88231C25.9728 5.24846 25.9727 5.84202 25.6067 6.20811L24.9437 6.87098C24.7606 7.05403 24.5207 7.14555 24.2808 7.14555Z"
        />
        <path
          d="M15 26.27C9.0552 26.27 4.21875 21.4336 4.21875 15.4888C4.21875 9.54396 9.0552 4.70752 15 4.70752C20.9448 4.70752 25.7812 9.54396 25.7812 15.4888C25.7812 21.4336 20.9448 26.27 15 26.27ZM15 6.58252C10.0891 6.58252 6.09375 10.5779 6.09375 15.4888C6.09375 20.3997 10.0891 24.395 15 24.395C19.9109 24.395 23.9062 20.3997 23.9062 15.4888C23.9062 10.5779 19.9109 6.58252 15 6.58252Z"
        />
    </symbol>

    <symbol id="icon-sunrise" viewBox="0 0 30 31">
      <path
        d="M 0.9375,28.6138 H 11.25 c 0.2494,0 0.4875,-0.0993 0.6637,-0.2756 L 15,25.252 l 3.0863,3.0881 c 0.1762,0.1744 0.4143,0.2737 0.6637,0.2737 H 29.0625 C 29.58,28.6138 30,28.1938 30,27.6763 30,27.1588 29.58,26.7388 29.0625,26.7388 H 19.1381 L 15.6637,23.2626 C 15.48,23.0807 15.24,22.9888 15,22.9888 c -0.24,0 -0.48,0.0919 -0.6619,0.2738 l -3.4762,3.4762 H 0.9375 C 0.42,26.7388 0,27.1588 0,27.6763 c 0,0.5175 0.42,0.9375 0.9375,0.9375 z"
      />
      <path
        d="M15 7.98877C9.83063 7.98877 5.625 12.1944 5.625 17.3638C5.625 18.4456 5.80875 19.4994 6.16875 20.495C6.345 20.9844 6.88688 21.2375 7.36875 21.0575C7.85438 20.8813 8.1075 20.345 7.93125 19.8575C7.64438 19.0663 7.5 18.2281 7.5 17.3638C7.5 13.2275 10.8637 9.86377 15 9.86377C19.1363 9.86377 22.5 13.2275 22.5 17.3638C22.5 18.2281 22.3556 19.0663 22.0688 19.8575C21.8906 20.345 22.1437 20.8813 22.6312 21.0575C22.7362 21.095 22.8431 21.1138 22.95 21.1138C23.3325 21.1138 23.6944 20.8775 23.8312 20.495C24.1912 19.4994 24.375 18.4456 24.375 17.3638C24.375 12.1944 20.1694 7.98877 15 7.98877Z"
      />
      <path
        d="M15 2.36377C14.4825 2.36377 14.0625 2.78377 14.0625 3.30127V5.17627C14.0625 5.69377 14.4825 6.11377 15 6.11377C15.5175 6.11377 15.9375 5.69377 15.9375 5.17627V3.30127C15.9375 2.78377 15.5175 2.36377 15 2.36377Z"
      />
      <path
        d="M2.8125 16.4263H0.9375C0.42 16.4263 0 16.8463 0 17.3638C0 17.8813 0.42 18.3013 0.9375 18.3013H2.8125C3.33 18.3013 3.75 17.8813 3.75 17.3638C3.75 16.8463 3.33 16.4263 2.8125 16.4263Z"
      />
      <path
        d="M29.0625 16.4263H27.1875C26.67 16.4263 26.25 16.8463 26.25 17.3638C26.25 17.8813 26.67 18.3013 27.1875 18.3013H29.0625C29.58 18.3013 30 17.8813 30 17.3638C30 16.8463 29.58 16.4263 29.0625 16.4263Z"
      />
      <path
        d="M7.04437 8.08251L5.71874 6.75689C5.35312 6.39126 4.75874 6.39126 4.39312 6.75689C4.02749 7.12251 4.02749 7.71689 4.39312 8.08251L5.71874 9.41002C5.90249 9.59189 6.14249 9.68377 6.38249 9.68377C6.62249 9.68377 6.86249 9.59189 7.04437 9.40814C7.40999 9.04252 7.40999 8.44814 7.04437 8.08251Z"
      />
      <path
        d="M25.605 6.75884C25.2394 6.39321 24.645 6.39321 24.2794 6.75884L22.9538 8.08446C22.5882 8.45009 22.5882 9.04446 22.9538 9.41009C23.1375 9.59196 23.3775 9.68384 23.6175 9.68384C23.8575 9.68384 24.0975 9.59196 24.2794 9.41009L25.605 8.08446C25.9706 7.71884 25.9706 7.12446 25.605 6.75884Z"
      />
    </symbol>

    <symbol id="icon-sunset" viewBox="0 0 30 31">
      <path
        d="M29.0625 22.9888H18.75C18.5006 22.9888 18.2625 23.0881 18.0863 23.2644L15 26.3506L11.9137 23.2625C11.7375 23.0881 11.4994 22.9888 11.25 22.9888H0.9375C0.42 22.9888 0 23.4088 0 23.9263C0 24.4438 0.42 24.8638 0.9375 24.8638H10.8619L14.3363 28.34C14.52 28.5219 14.76 28.6138 15 28.6138C15.24 28.6138 15.48 28.5219 15.6619 28.34L19.1381 24.8638H29.0625C29.58 24.8638 30 24.4438 30 23.9263C30 23.4088 29.58 22.9888 29.0625 22.9888Z"
      />
      <path
        d="M15 7.98877C9.83063 7.98877 5.625 12.1944 5.625 17.3638C5.625 18.4456 5.80875 19.4994 6.16875 20.495C6.345 20.9844 6.88688 21.2375 7.36875 21.0575C7.85438 20.8813 8.1075 20.345 7.93125 19.8575C7.64438 19.0663 7.5 18.2281 7.5 17.3638C7.5 13.2275 10.8637 9.86377 15 9.86377C19.1363 9.86377 22.5 13.2275 22.5 17.3638C22.5 18.2281 22.3556 19.0663 22.0688 19.8575C21.8906 20.345 22.1437 20.8813 22.6312 21.0575C22.7362 21.095 22.8431 21.1138 22.95 21.1138C23.3325 21.1138 23.6944 20.8775 23.8312 20.495C24.1912 19.4994 24.375 18.4456 24.375 17.3638C24.375 12.1944 20.1694 7.98877 15 7.98877Z"
      />
      <path
        d="M15 2.36377C14.4825 2.36377 14.0625 2.78377 14.0625 3.30127V5.17627C14.0625 5.69377 14.4825 6.11377 15 6.11377C15.5175 6.11377 15.9375 5.69377 15.9375 5.17627V3.30127C15.9375 2.78377 15.5175 2.36377 15 2.36377Z"
      />
      <path
        d="M2.8125 16.4263H0.9375C0.42 16.4263 0 16.8463 0 17.3638C0 17.8813 0.42 18.3013 0.9375 18.3013H2.8125C3.33 18.3013 3.75 17.8813 3.75 17.3638C3.75 16.8463 3.33 16.4263 2.8125 16.4263Z"
      />
      <path
        d="M29.0625 16.4263H27.1875C26.67 16.4263 26.25 16.8463 26.25 17.3638C26.25 17.8813 26.67 18.3013 27.1875 18.3013H29.0625C29.58 18.3013 30 17.8813 30 17.3638C30 16.8463 29.58 16.4263 29.0625 16.4263Z"
      />
      <path
        d="M7.04437 8.08251L5.71874 6.75689C5.35312 6.39126 4.75874 6.39126 4.39312 6.75689C4.02749 7.12251 4.02749 7.71689 4.39312 8.08251L5.71874 9.41002C5.90249 9.59189 6.14249 9.68377 6.38249 9.68377C6.62249 9.68377 6.86249 9.59189 7.04437 9.40814C7.40999 9.04252 7.40999 8.44814 7.04437 8.08251Z"
      />
      <path
        d="M25.605 6.75884C25.2394 6.39321 24.645 6.39321 24.2794 6.75884L22.9538 8.08446C22.5882 8.45009 22.5882 9.04446 22.9538 9.41009C23.1375 9.59196 23.3775 9.68384 23.6175 9.68384C23.8575 9.68384 24.0975 9.59196 24.2794 9.41009L25.605 8.08446C25.9706 7.71884 25.9706 7.12446 25.605 6.75884Z"
      />
    </symbol>

    <symbol id="icon-triangle-down" viewBox="0 0 50 50"></symbol>

    <symbol id="icon-cloud" viewBox="0 0 19 12">
      <path
        d="M15.0615 11.1094H3.45996C2.61445 11.1094 1.81486 10.7815 1.20845 10.186C0.597293 9.58595 0.260742 8.79015 0.260742 7.94531C0.260742 7.10047 0.597293 6.30468 1.20845 5.70459C1.68707 5.23463 2.28609 4.93133 2.93304 4.82435C2.93276 4.81008 2.93262 4.7957 2.93262 4.78125C2.93262 2.45503 4.82515 0.5625 7.15137 0.5625C8.01403 0.5625 8.84305 0.822199 9.54881 1.31354C10.0456 1.65941 10.4581 2.10255 10.7647 2.61587C11.2597 2.30885 11.8307 2.14453 12.4248 2.14453C14.0028 2.14453 15.3147 3.3056 15.551 4.81837C16.2123 4.91962 16.8251 5.22552 17.313 5.70459C17.9242 6.30468 18.2607 7.10047 18.2607 7.94531C18.2607 8.79015 17.9242 9.58595 17.313 10.186C16.7066 10.7815 15.907 11.1094 15.0615 11.1094ZM3.45996 5.83594C2.27745 5.83594 1.31543 6.7822 1.31543 7.94531C1.31543 9.10842 2.27745 10.0547 3.45996 10.0547H15.0615C16.244 10.0547 17.2061 9.10842 17.2061 7.94531C17.2061 6.7822 16.244 5.83594 15.0615 5.83594H14.5342V5.30859C14.5342 4.14548 13.5879 3.19922 12.4248 3.19922C11.8705 3.19922 11.3462 3.41438 10.9484 3.80507L10.3808 4.36254L10.0885 3.62257C9.60717 2.40437 8.45436 1.61719 7.15137 1.61719C5.4067 1.61719 3.9873 3.03659 3.9873 4.78125C3.9873 4.90598 4.00689 5.03993 4.02759 5.18172L4.12206 5.83594H3.45996Z"
      />
    </symbol>

    <symbol id="icon-arrow-down" viewBox="0 0 9 7" fill="none">
      <path
        d="M8.19755 1.39666L4.55465 5.54703L0.911743 1.39666"
        stroke="#455AF7"
        stroke-linecap="round"
      />
    </symbol>

    <symbol
      id="icon-arrow-down-solid"
      viewBox="0 0 5 5"
      fill="none"
      xmlns="http://www.w3.org/2000/svg"
    >
      <path
        d="M2.50001 4.82706L4.89618 0.676772H0.103843L2.50001 4.82706Z"
        fill="#E1E3F2"
      />
    </symbol>

    <symbol
      id="icon-arrow-up-solid"
      viewBox="0 0 5 5"
      fill="none"
      xmlns="http://www.w3.org/2000/svg"
    >
      <path
        d="M 2.500013,0.676772 0.103843,4.82706 H 4.89618 Z"
        fill="#e1e3f2"
      />
    </symbol>

    <symbol id="icon-lock" viewBox="0 0 20 20" fill="none">
      <g clip-path="url(#clip0)">
        <path
          d="M7.330233523618519,0.6578952074050907 C4.3876057613341715,0.6578952074050907 1.9935115726377726,3.0518958694904725 1.9935115726377726,5.994617158385829 v3.047938726284351 c0,0.03463602161160761 -0.042741661232685,0.09299662688337025 -0.07631771458614969,0.10415746913085185 c-0.28859194604738025,0.0962388827318013 -0.52296963324456,0.1796334442178899 -0.7375196789070841,0.2623421438898942 c-0.25585763219302704,0.09863939908112065 -0.448834206248696,0.3821809081338338 -0.448834206248696,0.6595808363967286 v7.003303808148383 c0,0.27549822050563905 0.19172955257550145,0.5592891338543816 0.445966056844314,0.6600484694517945 c1.9670828583506061,0.7794819517146552 4.03738791972194,1.1746318832422162 6.153396318341351,1.1746318832422162 s4.186313459990747,-0.39524345813856426 6.153489844952365,-1.1747254098532292 c0.2541429776577989,-0.10072816006039603 0.44577900362228906,-0.3844567223351338 0.44577900362228906,-0.6599549428407687 V10.068636334087643 c0,-0.27739992826289567 -0.19294539851866538,-0.5609414373156139 -0.448927732859711,-0.6596743630077316 c-0.2146435722735439,-0.08270869967200002 -0.4489900839337177,-0.16610326115809304 -0.7373638012220635,-0.2623421438898942 c-0.03348252674245311,-0.01116084224748433 -0.07622418797513997,-0.06955262305625252 -0.07622418797513997,-0.10418864466785627 V5.994523631774818 C12.666799596914245,3.0518958694904725 10.272861285902863,0.6578952074050907 7.330233523618519,0.6578952074050907 zM5.876642935263206,12.201604224837311 c0,-0.8033624130598407 0.6507893349615572,-1.4534658862072993 1.4534970617443033,-1.4534658862072993 c0.8026453757087456,0 1.4534347106702952,0.650041122073465 1.4534347106702952,1.4534658862072993 c0,0.5323222943457946 -0.30018924581292644,0.9780077713570581 -0.7267329431036497,1.2306543232386673 v2.4030415678165857 c0,0.40172796983543135 -0.3250361488052273,0.7267329431036497 -0.7267329431036497,0.7267329431036497 c-0.40172796983543135,0 -0.7267329431036497,-0.3250049732682318 -0.7267329431036497,-0.7267329431036497 v-2.4030415678165857 C6.1768633566131275,13.179611996194375 5.876642935263206,12.733926519183104 5.876642935263206,12.201604224837311 zM10.831901015461213,5.994523631774818 v2.629812423984744 c-1.1483197300107175,-0.2470973062948645 -2.3264120978603944,-0.3722359118295063 -3.501199858787631,-0.3723294384405168 c-1.1742577767981666,0 -2.3521007403518106,0.12516978107164656 -3.5021974759717636,0.3720488586074798 V5.994523631774818 c0,-1.9308568843517886 1.5708106074909054,-3.501636316305689 3.501636316305689,-3.501636316305689 C9.260934530285283,2.492856139932126 10.831901015461213,4.0636667474230315 10.831901015461213,5.994523631774818 z"
          fill="#455af7"
        />
      </g>
      <defs>
        <clipPath id="clip0">
          <rect width="20" height="20" fill="white" />
        </clipPath>
      </defs>
    </symbol>

    <symbol id="icon-enter" viewBox="0 0 20 20" fill="none">
      <g clip-path="url(#clip0)">
        <path
          d="M6.405146652316548,10.232447611026355 h-5.9840976727056825 v-2.393639069082273 h5.9840976727056825 v-2.393639069082273 l3.5904586036234103,3.5904586036234103 l-3.5904586036234103,3.5904586036234103 zM18.373341997727913,0.657891334697263 v15.558653949034776 l-7.180917207246819,3.5904586036234103 v-3.5904586036234103 h-7.180917207246819 v-4.787278138164546 h1.1968195345411365 v3.5904586036234103 h5.9840976727056825 v-10.771375810870229 l4.787278138164546,-2.393639069082273 h-10.771375810870229 v4.787278138164546 h-1.1968195345411365 v-5.9840976727056825 z"
          fill="#455af7"
        />
      </g>
      <defs>
        <clipPath id="clip0">
          <rect width="20" height="20" fill="white" />
        </clipPath>
      </defs>
    </symbol>

    <symbol id="icon-back" viewBox="0 0 20 20" fill="none">
      <g clip-path="url(#clip0)">
        <path
          d="M0.8684206052176081,9.00297593378559 l8.134548312267443,8.134548312267443 v-4.880728987360466 h8.676851533085273 v-6.507638649813955 h-8.676851533085273 v-4.880728987360466 z"
          fill="#455af7"
        />
      </g>
      <defs>
        <clipPath id="clip0">
          <rect width="20" height="20" fill="white" />
        </clipPath>
      </defs>
    </symbol>

    <symbol
      id="icon-close"
      viewBox="0 0 348.333 348.334"
      style="enable-background: new 0 0 348.333 348.334"
    >
      <g>
        <path
          d="M336.559,68.611L231.016,174.165l105.543,105.549c15.699,15.705,15.699,41.145,0,56.85
          c-7.844,7.844-18.128,11.769-28.407,11.769c-10.296,0-20.581-3.919-28.419-11.769L174.167,231.003L68.609,336.563
          c-7.843,7.844-18.128,11.769-28.416,11.769c-10.285,0-20.563-3.919-28.413-11.769c-15.699-15.698-15.699-41.139,0-56.85
          l105.54-105.549L11.774,68.611c-15.699-15.699-15.699-41.145,0-56.844c15.696-15.687,41.127-15.687,56.829,0l105.563,105.554
          L279.721,11.767c15.705-15.687,41.139-15.687,56.832,0C352.258,27.466,352.258,52.912,336.559,68.611z"
        />
      </g>
    </symbol>

    <symbol
      id="icon-check"
      viewBox="0 0 45.701 45.7"
      style="enable-background: new 0 0 45.701 45.7"
    >
      <g>
        <path
          d="M20.687,38.332c-2.072,2.072-5.434,2.072-7.505,0L1.554,26.704c-2.072-2.071-2.072-5.433,0-7.504
          c2.071-2.072,5.433-2.072,7.505,0l6.928,6.927c0.523,0.522,1.372,0.522,1.896,0L36.642,7.368c2.071-2.072,5.433-2.072,7.505,0
          c0.995,0.995,1.554,2.345,1.554,3.752c0,1.407-0.559,2.757-1.554,3.752L20.687,38.332z"
        />
      </g>
    </symbol>

    <symbol id="icon-arrow-down-2" viewBox="0 0 14 10">
      <path
        d="M9.211364 7.59931l4.48338-4.867229c.407008-.441854.407008-1.158247 0-1.60046l-.73712-.80023c-.407008-.441854-1.066904-.441854-1.474243 0L7 5.198617 2.51662.33139c-.407008-.441853-1.066904-.441853-1.474243 0l-.737121.80023c-.407008.441854-.407008 1.158248 0 1.600461l4.48338 4.867228L7 10l2.211364-2.40069z"
      ></path>
    </symbol>

    <symbol
      id="icon-triangle-with-exclaim"
      viewBox="0 0 24 24"
      fill="none"
      stroke="currentColor"
      stroke-width="2"
      stroke-linecap="round"
      stroke-linejoin="round"
      class="feather feather-alert-triangle"
    >
      <path
        d="M10.29 3.86L1.82 18a2 2 0 0 0 1.71 3h16.94a2 2 0 0 0 1.71-3L13.71 3.86a2 2 0 0 0-3.42 0z"
      ></path>
      <line x1="12" y1="9" x2="12" y2="13"></line>
      <line x1="12" y1="17" x2="12" y2="17"></line>
    </symbol>
    
    <symbol id="disconnect" viewBox="0 0 512 512">
      <path
        d="M256,0C114.6,0,0,114.6,0,256s114.6,256,256,256s256-114.6,256-256S397.4,0,256,0z M64,256c0-106.1,86-192,192-192
      c42.1,0,81,13.7,112.6,36.7L100.7,368.6C77.7,337,64,298.1,64,256z M256,448c-42.1,0-81-13.7-112.6-36.7l267.9-267.9
      c23,31.7,36.7,70.5,36.7,112.6C448,362.1,362,448,256,448z"
      />
    </symbol>

    <symbol id="refresh" viewBox="-50 -50 600 600">
      <path d="M480 256c0 123.4-100.5 223.9-223.9 223.9c-48.84 0-95.17-15.58-134.2-44.86c-14.12-10.59-16.97-30.66-6.375-44.81c10.59-14.12 30.62-16.94 44.81-6.375c27.84 20.91 61 31.94 95.88 31.94C344.3 415.8 416 344.1 416 256s-71.69-159.8-159.8-159.8c-37.46 0-73.09 13.49-101.3 36.64l45.12 45.14c17.01 17.02 4.955 46.1-19.1 46.1H35.17C24.58 224.1 16 215.5 16 204.9V59.04c0-24.04 29.07-36.08 46.07-19.07l47.6 47.63C149.9 52.71 201.5 32.11 256.1 32.11C379.5 32.11 480 132.6 480 256z"/>
    </symbol>

    <symbol
      id="download"
      viewBox="0 0 26 26"
      stroke-width="3"
      stroke-linecap="round"
      stroke-linejoin="round"
    >
      <line fill="none" x1="12" x2="12" y1="2.5" y2="19.2"/>
      <polyline fill="none" points="7 16.4 12 21.5 17 16.4"/>
    </symbol>
  </defs>
</svg>